<svg width="960" height="960" viewBox="0 0 960 960" fill="none" xmlns="http://www.w3.org/2000/svg">
<path fill-rule="evenodd" clip-rule="evenodd" d="M343.918 460.101C343.918 460.101 290.468 657.147 141.7 538.351L131.908 552.737L113.391 579.937L107.457 588.65C339.688 766.313 397.488 515.875 397.488 515.875C463.845 629.324 396.416 831.589 396.416 831.589L408.97 834.116L451.584 842.687L463.845 845.153C540.369 590.053 469.106 443.339 468.134 441.34L468.13 441.331C432.815 449.73 397.236 457.392 361.03 459.272C355.346 459.615 349.648 459.665 343.958 459.423L343.918 460.101ZM463.801 464.383C463.581 463.575 462.747 463.098 461.94 463.319C461.132 463.539 460.655 464.372 460.875 465.18C492.487 581.188 490.697 703.765 455.712 818.801C455.468 819.602 455.92 820.449 456.721 820.693C457.522 820.936 458.369 820.484 458.613 819.683C493.764 704.101 495.562 580.942 463.801 464.383Z" fill="#171717"/>
<path fill-rule="evenodd" clip-rule="evenodd" d="M297.674 435.758C303.345 446.23 314.14 453.214 325.582 456.53C331.576 458.204 337.744 459.175 343.963 459.421C349.652 459.663 355.351 459.613 361.035 459.27C397.24 457.39 432.819 449.729 468.135 441.329C473.641 440.004 479.143 438.68 484.641 437.356C490.706 435.891 497.478 433.889 500.369 428.37C502.762 423.802 501.691 418.263 500.569 413.229C499.177 407.036 497.789 400.847 496.405 394.661C496.213 393.797 496.018 392.93 495.823 392.063C495.629 391.196 495.434 390.33 495.242 389.466C494.353 385.514 493.214 381.167 489.814 378.944C489.292 378.596 488.728 378.314 488.137 378.105C484.407 376.71 479.909 377.987 475.977 379.287C474.269 379.853 472.571 380.409 470.863 380.965L470.539 379.944C466.129 361.911 462.991 343.592 461.149 325.12L462.028 325.039C468.64 323.303 475.043 320.849 481.122 317.721C516.559 299.952 542.577 266.369 556.202 229.138C569.827 191.907 571.889 151.248 567.816 111.807C567.411 107.922 566.785 103.691 563.924 101.022C562.247 99.5392 560.132 98.6449 557.9 98.4746C555.022 98.2632 552.128 98.4469 549.3 99.0206L516.9 104.51C516.223 104.621 515.556 104.742 514.879 104.884C512.862 105.192 510.942 105.959 509.269 107.127C504.67 110.681 505.013 117.599 505.65 123.381C508.167 146.163 508.378 169.41 503.517 191.81C498.656 214.21 488.477 235.798 472.285 252.01C456.193 268.112 433.845 278.482 411.103 277.876C410.77 277.151 410.289 276.504 409.69 275.978C409.091 275.452 408.387 275.058 407.626 274.823C406.335 274.567 405.003 274.616 403.734 274.965L402.582 275.207C395.408 276.658 387.954 275.625 381.447 272.276L380.658 272.327C381.028 274.424 381.154 276.557 381.032 278.684C380.729 286.852 375.827 294.857 368.398 298.263C360.969 301.669 351.316 299.911 346.009 293.694C348.021 301.71 345.756 307.855 338.044 310.817C335.785 311.673 333.384 312.088 330.969 312.04L330.959 312.566C313.814 337.014 301.721 364.639 295.39 393.821C292.357 407.81 290.862 423.174 297.674 435.758ZM557.327 129.655C557.148 128.837 556.34 128.32 555.522 128.499C554.704 128.678 554.186 129.486 554.365 130.304C568.984 197.095 538.477 271.474 481.173 308.78C480.471 309.237 480.273 310.176 480.73 310.878C481.186 311.579 482.125 311.778 482.827 311.321C541.187 273.327 572.216 197.678 557.327 129.655Z" fill="white"/>
<path d="M845.078 882.013C845.077 886.564 843.726 891.012 841.197 894.796C838.667 898.579 835.073 901.528 830.867 903.268C826.662 905.009 822.035 905.463 817.572 904.574C813.108 903.685 809.009 901.492 805.792 898.273C802.575 895.054 800.384 890.953 799.498 886.489C798.612 882.025 799.069 877.398 800.813 873.194C802.556 868.99 805.507 865.397 809.292 862.87C813.077 860.343 817.526 858.996 822.078 858.998C825.099 858.998 828.091 859.593 830.883 860.75C833.674 861.907 836.21 863.602 838.346 865.739C840.482 867.877 842.176 870.414 843.331 873.206C844.486 875.998 845.08 878.991 845.078 882.013V882.013Z" fill="#171717"/>
<path d="M840.56 425.62L830.573 462.008L830.604 463.029L763.519 465.071L763.509 464.858L769.391 445.148L777.771 417.059L794.075 419.283L840.56 425.62Z" fill="#171717"/>
<path d="M768.501 444.884L758.515 394.932L710.24 408.628L709.998 407.779L712.848 380.67L799.896 381.378L794.185 418.483L794.074 419.282L777.77 417.058L769.39 445.147L768.501 444.884Z" fill="white"/>
<path d="M670.78 467.89L763.518 465.07L830.603 463.028L852.334 462.361L806.314 649.646L554.329 657.126L535.205 472.024L563.759 471.154L584.44 470.528L670.78 467.89Z" fill="white"/>
<path d="M657.914 423.477L665.201 448.191L664.332 448.443L602.261 428.471L584.421 469.851L584.441 470.529L563.76 471.155L582.278 394.226L680.029 400.644L676.461 417.766L676.583 418.181L657.914 423.477Z" fill="#171717"/>
<path d="M612.599 889.088C612.598 893.64 611.247 898.089 608.718 901.872C606.188 905.656 602.594 908.605 598.388 910.345C594.183 912.086 589.555 912.54 585.092 911.651C580.628 910.761 576.529 908.568 573.311 905.349C570.094 902.129 567.904 898.028 567.018 893.564C566.131 889.1 566.589 884.473 568.332 880.269C570.076 876.064 573.027 872.472 576.812 869.945C580.598 867.418 585.048 866.07 589.599 866.072C592.621 866.073 595.613 866.669 598.404 867.826C601.195 868.983 603.731 870.679 605.867 872.816C608.003 874.953 609.696 877.49 610.852 880.282C612.007 883.074 612.601 886.067 612.599 889.088V889.088Z" fill="#171717"/>
<path d="M526.776 412.401C521.692 413.493 516.082 414.501 511.564 411.936C508.31 410.097 506.227 406.63 505.227 403.036C504.393 399.385 504.036 395.641 504.165 391.898L504.085 391.675C507.612 390.402 511.194 389.294 514.829 388.35C517.659 387.612 520.813 387.006 523.39 388.38C526.271 389.917 527.464 393.394 528.07 396.608C528.676 399.822 529.03 403.259 531.062 405.816C531.511 406.374 532.055 406.85 532.669 407.221C532.76 407.949 532.64 408.687 532.322 409.349C532.005 410.01 531.504 410.566 530.88 410.951C529.62 411.698 528.226 412.191 526.776 412.401V412.401Z" fill="white"/>
<path d="M421.514 870.469C417.946 881.203 414.385 891.934 410.83 902.662C410.284 904.32 409.617 906.129 408.111 907.019C406.696 907.858 404.927 907.666 403.29 907.433C400.217 907.009 397.134 906.594 394.051 906.17C392.808 905.998 391.383 905.705 390.776 904.603C390.401 903.617 390.415 902.526 390.817 901.55C397.073 879.02 402.643 856.975 408.899 834.45L408.97 834.117L451.584 842.688L451.433 843.446C447.197 851.664 448.441 861.893 452.686 870.11C456.931 878.327 463.845 884.827 470.991 890.69C478.137 896.553 485.718 901.98 491.975 908.79C493.804 910.801 495.613 913.641 494.34 916.037C492.995 918.554 489.407 918.473 486.587 918.048C472.77 915.926 458.953 913.811 445.135 911.701C440.526 910.993 435.745 910.215 431.955 907.516C426.426 903.594 424.212 896.458 423.444 889.726C422.575 882.026 422.221 877.254 421.944 870.613L421.514 870.469Z" fill="white"/>
<path d="M316.122 263.916C298.413 249.866 318.254 225.891 326.836 233.896L327.776 233.765C317.576 222.272 322.813 207.05 333.002 206.99C331.585 204.265 330.898 201.219 331.008 198.149C331.117 195.08 332.02 192.091 333.628 189.473C335.288 186.888 337.489 184.693 340.078 183.039C342.667 181.385 345.584 180.311 348.628 179.891C354.38 179.15 360.216 180.33 365.228 183.247L365.339 183.047C363.876 179.513 363.379 175.653 363.898 171.863C364.417 168.073 365.933 164.489 368.292 161.477C370.651 158.466 373.767 156.135 377.322 154.723C380.877 153.311 384.744 152.869 388.526 153.442C395.976 154.564 399.473 156.858 402.161 163.802C404.994 159.214 409.328 155.748 414.427 153.994C419.526 152.239 425.075 152.304 430.131 154.177C435.187 156.051 439.439 159.617 442.164 164.27C444.889 168.923 445.919 174.376 445.079 179.702H444.816C444.776 180.349 444.735 180.996 444.695 181.632C444.856 180.996 444.978 180.349 445.079 179.702C451.295 179.611 452.862 180.002 455.53 185.756C456.899 188.696 457.386 191.97 456.934 195.181C456.481 198.393 455.108 201.404 452.981 203.852C450.853 206.299 448.062 208.078 444.945 208.973C441.827 209.867 438.518 209.84 435.416 208.893L434.991 208.993C433.456 203.371 431.629 197.833 429.52 192.4L427.691 192.218C424.068 196.332 419.228 199.183 413.873 200.355C405.09 202.285 395.922 200.224 387.452 197.161C389.552 199.761 391.047 202.796 391.828 206.046C392.609 209.296 392.656 212.679 391.967 215.949C391.277 219.219 389.868 222.295 387.842 224.953C385.816 227.611 383.223 229.784 380.252 231.315L379.919 231.658C382.728 234.26 385.076 237.319 386.863 240.705C389.309 245.627 389.915 251.742 387.226 256.523C384.537 261.304 378.018 263.983 373.177 261.395C377.577 265.044 379.807 268.046 380.656 272.322C381.026 274.42 381.152 276.553 381.03 278.679C380.73 286.847 375.835 294.852 368.396 298.258C360.957 301.664 351.314 299.906 346.007 293.689C348.019 301.705 345.754 307.85 338.042 310.812C335.783 311.669 333.382 312.084 330.967 312.035C325.057 311.906 319.425 309.498 315.249 305.313C309.427 299.451 306.88 290.789 307.527 282.551C308.066 275.57 310.906 268.6 316.122 263.916Z" fill="#171717"/>
<path d="M109.955 549.844C106.033 547.054 102.104 544.271 98.1688 541.495C97.1507 540.947 96.37 540.044 95.9758 538.958C95.6218 537.452 96.7758 536.047 97.8458 534.915C99.5338 533.156 101.485 531.266 103.921 531.225C106.121 531.195 108.014 532.691 109.702 534.116L131.11 552.189L131.91 552.735L113.393 579.935L113.193 579.804C104.836 578.592 96.3196 579.117 88.1747 581.344C80.0299 583.572 72.4318 587.455 65.8548 592.751L65.2988 592.62C67.1355 584.379 70.6386 576.601 75.5926 569.765C80.5467 562.928 86.8469 557.177 94.1058 552.866C96.4753 551.396 99.0459 550.28 101.737 549.551C104.444 548.821 107.307 548.924 109.955 549.844V549.844Z" fill="white"/>
<path d="M416.016 225.78C417.583 226.831 419.877 225.396 420.251 223.546C420.625 221.696 419.651 219.836 418.432 218.391C417.098 217.059 415.874 215.621 414.773 214.091C413.803 212.464 413.489 210.24 414.682 208.775" stroke="#171717" stroke-width="2.022" stroke-linecap="round" stroke-linejoin="round"/>
<path d="M406.625 210.729C406.225 210.303 405.738 209.969 405.196 209.751C404.655 209.532 404.072 209.433 403.488 209.462C402.905 209.49 402.335 209.645 401.817 209.916C401.299 210.187 400.847 210.566 400.49 211.029" stroke="#171717" stroke-width="2.022" stroke-linecap="round" stroke-linejoin="round"/>
<path d="M420.826 209.437C421.866 208.592 423.178 208.155 424.517 208.211C425.856 208.266 427.128 208.809 428.094 209.737" stroke="#171717" stroke-width="2.022" stroke-linecap="round" stroke-linejoin="round"/>
<path d="M412.923 241.507C410.694 242.865 408.035 243.33 405.478 242.809C402.92 242.288 400.655 240.819 399.136 238.697" stroke="#171717" stroke-width="2.022" stroke-linecap="round" stroke-linejoin="round"/>
<path d="M403.584 274.2C401.946 268.034 406.313 261.777 411.478 258.027C416.643 254.277 422.819 251.953 427.529 247.647C434.776 241.026 437.485 230.575 436.919 220.78C436.656 216.799 436.009 212.853 434.988 208.995C433.454 203.373 431.629 197.834 429.52 192.4" stroke="#171717" stroke-width="3.032" stroke-linecap="round" stroke-linejoin="round"/>
<path d="M432.168 182.448C431.675 186.077 430.117 189.478 427.691 192.222C424.068 196.336 419.228 199.187 413.873 200.359C405.09 202.289 395.922 200.228 387.452 197.165C387.341 197.135 387.239 197.094 387.128 197.054" stroke="#171717" stroke-width="3.032" stroke-linecap="round" stroke-linejoin="round"/>
<path d="M383.257 193.112C384.83 194.27 386.241 195.633 387.452 197.165C389.552 199.765 391.047 202.8 391.828 206.05C392.609 209.3 392.656 212.683 391.967 215.953C391.277 219.223 389.868 222.299 387.842 224.957C385.816 227.615 383.223 229.788 380.252 231.319" stroke="#171717" stroke-width="3.032" stroke-linecap="round" stroke-linejoin="round"/>
<path d="M376.222 228.286C377.475 229.368 378.729 230.486 379.922 231.662C382.731 234.264 385.079 237.323 386.866 240.709C389.312 245.631 389.918 251.746 387.229 256.527C384.54 261.308 378.021 263.987 373.18 261.399" stroke="#171717" stroke-width="3.032" stroke-linecap="round" stroke-linejoin="round"/>
<path d="M373.18 261.4C377.58 265.049 379.81 268.051 380.659 272.327C381.029 274.425 381.155 276.558 381.033 278.684C380.733 286.852 375.838 294.857 368.399 298.263C360.96 301.669 351.317 299.911 346.01 293.694" stroke="#171717" stroke-width="3.032" stroke-linecap="round" stroke-linejoin="round"/>
<path d="M346.01 293.693C348.022 301.709 345.757 307.854 338.045 310.816C335.786 311.673 333.385 312.088 330.97 312.039C325.06 311.91 319.428 309.502 315.252 305.317C309.43 299.455 306.883 290.793 307.53 282.555C308.066 275.57 310.906 268.596 316.122 263.916C316.172 263.866 316.222 263.825 316.273 263.775" stroke="#171717" stroke-width="3.032" stroke-linecap="round" stroke-linejoin="round"/>
<path d="M316.414 264.159C316.314 264.078 316.222 264.007 316.121 263.916C298.412 249.866 318.253 225.891 326.835 233.896C327.012 234.054 327.179 234.223 327.335 234.402" stroke="#171717" stroke-width="3.032" stroke-linecap="round" stroke-linejoin="round"/>
<path d="M327.776 233.765C317.576 222.272 322.813 207.05 333.002 206.99" stroke="#171717" stroke-width="3.032" stroke-linecap="round" stroke-linejoin="round"/>
<path d="M333 206.991C331.583 204.265 330.896 201.219 331.005 198.15C331.115 195.08 332.018 192.091 333.626 189.474C335.286 186.888 337.487 184.693 340.076 183.039C342.665 181.385 345.582 180.311 348.626 179.892C354.378 179.15 360.213 180.33 365.226 183.248C365.549 183.419 365.873 183.611 366.196 183.814" stroke="#171717" stroke-width="3.032" stroke-linecap="round" stroke-linejoin="round"/>
<path d="M365.336 183.044C363.873 179.509 363.376 175.65 363.895 171.86C364.414 168.07 365.93 164.486 368.289 161.474C370.647 158.462 373.764 156.132 377.319 154.72C380.874 153.308 384.741 152.866 388.523 153.439C395.973 154.561 399.47 156.855 402.158 163.799C402.189 163.86 402.209 163.931 402.239 163.999" stroke="#171717" stroke-width="3.032" stroke-linecap="round" stroke-linejoin="round"/>
<path d="M400.218 167.681C400.741 166.33 401.391 165.03 402.158 163.799C404.991 159.211 409.325 155.746 414.424 153.991C419.522 152.236 425.071 152.301 430.128 154.175C435.184 156.048 439.436 159.614 442.161 164.267C444.886 168.92 445.916 174.373 445.076 179.699C444.976 180.346 444.853 180.993 444.692 181.629C444.732 180.993 444.773 180.346 444.813 179.699" stroke="#171717" stroke-width="3.032" stroke-linecap="round" stroke-linejoin="round"/>
<path d="M444.812 179.701H445.075C451.291 179.61 452.858 180.001 455.526 185.755C456.895 188.695 457.382 191.968 456.93 195.18C456.478 198.391 455.105 201.403 452.977 203.85C450.849 206.298 448.058 208.076 444.941 208.971C441.824 209.866 438.514 209.838 435.412 208.892" stroke="#171717" stroke-width="3.032" stroke-linecap="round" stroke-linejoin="round"/>
<path d="M381.447 272.275C387.955 275.624 395.409 276.658 402.582 275.206L403.734 274.964C405.003 274.616 406.336 274.567 407.626 274.822C408.388 275.058 409.091 275.452 409.69 275.978C410.289 276.504 410.771 277.151 411.103 277.875C411.476 278.623 411.728 279.424 411.851 280.25C412.051 282.676 411.776 285.117 411.042 287.437" stroke="#171717" stroke-width="3.032" stroke-linecap="round" stroke-linejoin="round"/>
<path d="M410.639 277.866C410.79 277.876 410.952 277.876 411.104 277.876C433.846 278.482 456.194 268.112 472.286 252.01C488.478 235.798 498.657 214.21 503.518 191.81C508.379 169.41 508.168 146.163 505.651 123.381C505.014 117.599 504.671 110.681 509.27 107.127C510.943 105.959 512.863 105.192 514.88 104.884C515.557 104.742 516.224 104.621 516.901 104.51L549.301 99.0206C552.129 98.4469 555.023 98.2632 557.901 98.4746C560.132 98.6449 562.248 99.5392 563.925 101.022C566.786 103.691 567.412 107.922 567.817 111.807C571.89 151.248 569.828 191.907 556.203 229.138C542.578 266.369 516.56 299.952 481.123 317.721C475.044 320.849 468.641 323.303 462.029 325.039" stroke="#171717" stroke-width="3.032" stroke-linecap="round" stroke-linejoin="round"/>
<path d="M330.96 312.565C313.815 337.014 301.722 364.638 295.391 393.82C292.358 407.809 290.863 423.173 297.675 435.757C303.346 446.229 314.141 453.213 325.583 456.529C331.575 458.203 337.741 459.173 343.958 459.419C349.647 459.662 355.346 459.612 361.03 459.268C397.236 457.388 432.815 449.726 468.13 441.327C473.639 440.013 479.141 438.689 484.636 437.354C490.701 435.889 497.473 433.887 500.364 428.368C502.759 423.8 501.688 418.261 500.564 413.227C499.169 407.031 497.781 400.842 496.4 394.659C496.016 392.931 495.621 391.192 495.237 389.464C494.348 385.512 493.206 381.164 489.809 378.942C489.286 378.595 488.723 378.313 488.132 378.103C484.402 376.708 479.904 377.982 475.972 379.285C474.264 379.851 472.566 380.407 470.858 380.963C445.285 389.242 419.352 396.26 393.058 402.018C387.358 403.261 381.292 404.418 375.834 402.382C370.679 400.471 366.909 395.982 364.059 391.282C356.35 378.461 353.755 363.206 356.791 348.557" stroke="#171717" stroke-width="3.032" stroke-linecap="round" stroke-linejoin="round"/>
<path d="M460.551 318.629C460.733 320.792 460.925 322.955 461.151 325.118C462.993 343.59 466.131 361.91 470.541 379.942" stroke="#171717" stroke-width="3.032" stroke-linecap="round" stroke-linejoin="round"/>
<path d="M514.768 103.507C509.39 102.172 504.116 100.445 498.99 98.342C496.938 97.493 494.654 96.28 494.219 94.107C493.819 92.065 495.362 90.033 497.282 89.215C499.258 88.5303 501.376 88.3563 503.438 88.709C509.516 89.3146 515.509 90.5889 521.308 92.509" stroke="#171717" stroke-width="3.032" stroke-linecap="round" stroke-linejoin="round"/>
<path d="M546.03 78.5418C546.01 70.0618 546.364 61.5708 548.537 53.3938C549.204 50.8668 550.518 47.9758 553.096 47.5818C554.076 47.5238 555.051 47.7616 555.895 48.2645C556.738 48.7673 557.411 49.5119 557.826 50.4018C558.625 52.1951 559.032 54.1385 559.019 56.1018C559.854 70.2319 559.48 84.4076 557.899 98.4738C557.889 98.5958 557.869 98.7168 557.859 98.8378" stroke="#171717" stroke-width="3.032" stroke-linecap="round" stroke-linejoin="round"/>
<path d="M546.03 78.541C546.101 80.664 546.121 82.776 546.101 84.899C546.071 82.776 546.041 80.664 546.03 78.541Z" stroke="#171717" stroke-width="3.032" stroke-linecap="round" stroke-linejoin="round"/>
<path d="M532.1 75.5893C531.888 69.7293 532.25 63.8627 533.182 58.0733C533.412 55.9255 534.188 53.8724 535.436 52.1093C536.8 50.4523 539.266 49.5093 541.177 50.5023C543.158 51.5333 543.744 54.0503 544.077 56.2643C545.186 63.6426 545.837 71.0825 546.027 78.5413" stroke="#171717" stroke-width="3.032" stroke-linecap="round" stroke-linejoin="round"/>
<path d="M532.1 75.5898C532.588 80.2673 532.834 84.9669 532.838 89.6698C532.517 84.9908 532.194 80.2908 532.1 75.5898Z" stroke="#171717" stroke-width="3.032" stroke-linecap="round" stroke-linejoin="round"/>
<path d="M521.844 94.1178C521.722 93.5718 521.601 93.0179 521.49 92.4699H521.48C519.356 82.4282 518.623 72.1423 519.3 61.9009C519.297 59.9975 519.722 58.1179 520.543 56.4009C520.965 55.5486 521.635 54.8436 522.464 54.3783C523.294 53.913 524.244 53.7089 525.192 53.7928C527.831 54.2478 528.983 57.3408 529.569 59.9588C530.709 65.1167 531.554 70.3356 532.1 75.5898" stroke="#171717" stroke-width="3.032" stroke-linecap="round" stroke-linejoin="round"/>
<path d="M343.917 460.1C343.917 460.1 290.467 657.146 141.699 538.35L131.905 552.734L113.388 579.934L107.454 588.647C339.689 766.31 397.485 515.872 397.485 515.872C463.842 629.321 396.413 831.586 396.413 831.586L408.967 834.113L451.581 842.684L463.842 845.15C540.499 589.608 468.855 442.823 468.127 441.328L468.117 441.317" stroke="#171717" stroke-width="3.032" stroke-linecap="round" stroke-linejoin="round"/>
<path d="M612.599 889.088C612.598 893.64 611.247 898.089 608.718 901.872C606.188 905.656 602.594 908.605 598.388 910.345C594.183 912.086 589.555 912.54 585.092 911.651C580.628 910.761 576.529 908.568 573.311 905.349C570.094 902.129 567.904 898.028 567.018 893.564C566.131 889.1 566.589 884.473 568.332 880.269C570.076 876.064 573.027 872.472 576.812 869.945C580.598 867.418 585.048 866.07 589.599 866.072C592.621 866.073 595.613 866.669 598.404 867.826C601.195 868.983 603.731 870.679 605.867 872.816C608.003 874.953 609.696 877.49 610.852 880.282C612.007 883.074 612.601 886.067 612.599 889.088V889.088Z" stroke="#171717" stroke-width="3.032" stroke-linecap="round" stroke-linejoin="round"/>
<path d="M845.078 882.013C845.077 886.564 843.726 891.012 841.197 894.796C838.667 898.579 835.073 901.528 830.867 903.268C826.662 905.009 822.035 905.463 817.572 904.574C813.108 903.685 809.009 901.492 805.792 898.273C802.575 895.054 800.384 890.953 799.498 886.489C798.612 882.025 799.069 877.398 800.813 873.194C802.556 868.99 805.507 865.397 809.292 862.87C813.077 860.343 817.526 858.996 822.078 858.998C825.099 858.998 828.091 859.593 830.883 860.75C833.674 861.907 836.21 863.602 838.346 865.739C840.482 867.877 842.176 870.414 843.331 873.206C844.486 875.998 845.08 878.991 845.078 882.013V882.013Z" stroke="#171717" stroke-width="3.032" stroke-linecap="round" stroke-linejoin="round"/>
<path d="M612.601 889.088L799.058 882.012" stroke="#171717" stroke-width="3.032" stroke-linecap="round" stroke-linejoin="round"/>
<path d="M576.212 869.044L554.329 657.126L535.205 472.024L529.12 413.126" stroke="#171717" stroke-width="3.032" stroke-linecap="round" stroke-linejoin="round"/>
<path d="M553.743 657.146L554.329 657.126L806.314 649.646L852.334 462.361L830.603 463.028L763.518 465.07L670.78 467.89L584.44 470.528L563.759 471.154L535.205 472.024" stroke="#171717" stroke-width="3.032" stroke-linecap="round" stroke-linejoin="round"/>
<path d="M496.625 394.609C499.081 393.547 501.568 392.557 504.085 391.667C507.612 390.394 511.194 389.286 514.829 388.342C517.659 387.604 520.813 386.998 523.39 388.372C526.271 389.909 527.464 393.386 528.07 396.6C528.676 399.814 529.03 403.251 531.062 405.808C531.511 406.367 532.055 406.842 532.669 407.213C534.913 408.578 537.996 408.669 539.451 406.556C540.218 405.164 540.513 403.561 540.29 401.987C540.167 399.373 539.887 396.768 539.451 394.187C539.037 391.728 538.48 389.295 537.784 386.9C536.813 383.544 535.469 380.107 532.79 377.853C530.156 375.833 526.886 374.822 523.572 375.003C520.283 375.197 517.029 375.784 513.879 376.751" stroke="#171717" stroke-width="3.032" stroke-linecap="round" stroke-linejoin="round"/>
<path d="M540.461 394C541.739 391.318 542.387 388.38 542.358 385.409C542.328 382.439 541.62 379.514 540.289 376.858C539.245 374.706 537.781 372.785 535.983 371.207C532.769 368.53 528.78 366.955 524.603 366.715C520.427 366.475 516.283 367.582 512.783 369.873" stroke="#171717" stroke-width="3.032" stroke-linecap="round" stroke-linejoin="round"/>
<path d="M540.28 376.87C540.28 376.868 540.281 376.865 540.283 376.863C540.285 376.861 540.287 376.86 540.29 376.86C542.312 373.13 541.382 368.228 538.633 364.983C535.714 361.821 531.662 359.942 527.363 359.757C523.101 359.595 518.848 360.261 514.839 361.718C504.933 364.97 495.879 370.396 488.339 377.597" stroke="#171717" stroke-width="3.032" stroke-linecap="round" stroke-linejoin="round"/>
<path d="M532.668 407.214C532.759 407.941 532.639 408.68 532.322 409.341C532.005 410.003 531.504 410.559 530.879 410.944C529.621 411.692 528.228 412.186 526.779 412.399C521.695 413.491 516.085 414.499 511.567 411.934C508.313 410.095 506.23 406.628 505.23 403.034C504.396 399.382 504.039 395.638 504.168 391.896" stroke="#171717" stroke-width="3.032" stroke-linecap="round" stroke-linejoin="round"/>
<path d="M131.109 552.189L109.699 534.116C108.011 532.691 106.121 531.195 103.918 531.225C101.482 531.266 99.5315 533.156 97.8435 534.915C96.7715 536.047 95.6195 537.452 95.9735 538.958C96.3676 540.044 97.1484 540.947 98.1665 541.495C102.1 544.273 106.028 547.056 109.952 549.844C110.005 549.873 110.056 549.907 110.104 549.944" stroke="#171717" stroke-width="3.032" stroke-linecap="round" stroke-linejoin="round"/>
<path d="M109.955 549.843C107.307 548.923 104.443 548.821 101.737 549.55C99.0456 550.279 96.475 551.396 94.1055 552.865C86.8468 557.177 80.5467 562.928 75.5929 569.764C70.6391 576.601 67.1361 584.379 65.2995 592.619L65.2695 592.77" stroke="#171717" stroke-width="3.032" stroke-linecap="round" stroke-linejoin="round"/>
<path d="M65.8545 592.75C72.4307 587.455 80.0281 583.572 88.1722 581.344C96.3163 579.115 104.832 578.59 113.188 579.8" stroke="#171717" stroke-width="3.032" stroke-linecap="round" stroke-linejoin="round"/>
<path d="M408.899 834.445C402.643 856.975 397.073 879.02 390.817 901.545C390.415 902.521 390.401 903.613 390.776 904.598C391.383 905.698 392.808 905.998 394.051 906.165C397.134 906.589 400.217 907.004 403.29 907.428C404.927 907.661 406.696 907.853 408.111 907.014C409.617 906.124 410.284 904.314 410.83 902.657C414.388 891.924 417.95 881.193 421.514 870.464C421.564 870.292 421.625 870.11 421.686 869.939" stroke="#171717" stroke-width="3.032" stroke-linecap="round" stroke-linejoin="round"/>
<path d="M421.948 870.611C422.221 877.252 422.575 882.022 423.448 889.724C424.216 896.456 426.43 903.592 431.959 907.514C435.749 910.214 440.53 910.991 445.139 911.699C458.957 913.811 472.775 915.927 486.591 918.046C489.411 918.471 492.999 918.552 494.344 916.035C495.617 913.635 493.808 910.799 491.979 908.788C485.722 901.975 478.151 896.547 470.995 890.688C463.839 884.829 456.945 878.316 452.69 870.108C448.435 861.9 447.201 851.662 451.437 843.444" stroke="#171717" stroke-width="3.032" stroke-linecap="round" stroke-linejoin="round"/>
<path d="M830.573 462.008L840.56 425.62L794.075 419.283L777.771 417.059L769.391 445.148L763.509 464.858" stroke="#171717" stroke-width="3.032" stroke-linecap="round" stroke-linejoin="round"/>
<path d="M768.501 444.885L758.515 394.933L710.24 408.629L676.582 418.181L657.913 423.477L665.2 448.191L670.749 467.001" stroke="#171717" stroke-width="3.032" stroke-linecap="round" stroke-linejoin="round"/>
<path d="M664.332 448.443L602.261 428.471L584.421 469.851" stroke="#171717" stroke-width="3.032" stroke-linecap="round" stroke-linejoin="round"/>
<path d="M563.729 471.277L563.76 471.155L582.278 394.226L680.029 400.644L676.461 417.766" stroke="#171717" stroke-width="3.032" stroke-linecap="round" stroke-linejoin="round"/>
<path d="M794.185 418.483L799.896 381.378L712.848 380.67L709.998 407.779" stroke="#171717" stroke-width="3.032" stroke-linecap="round" stroke-linejoin="round"/>
<path d="M213.639 240.52C229.745 245.239 241.294 260.065 246.548 276.005C251.802 291.945 251.774 309.075 251.655 325.858C251.555 339.692 249.555 356.543 236.861 362.049C226.222 366.665 213.969 360.161 205.68 352.049C200.863 347.335 196.516 341.738 195.165 335.135C193.814 328.532 196.202 320.808 202.13 317.602C208.014 314.419 215.704 316.575 220.559 321.177C225.414 325.779 227.941 332.305 229.669 338.768C233.897 354.649 234.196 371.32 230.542 387.343C228.442 396.494 225.058 405.402 224.217 414.753C223.376 424.104 225.596 434.414 232.811 440.422C240.026 446.43 252.878 445.604 257.119 437.228" stroke="#171717" stroke-width="3.032" stroke-linecap="round" stroke-linejoin="round"/>
<path d="M333.913 744.672C332.082 738.566 328.888 732.955 324.572 728.264C320.256 723.572 314.931 719.921 308.999 717.587C301.105 714.521 292.06 713.936 284.189 717.062C276.318 720.188 269.889 727.319 268.651 735.697C267.413 744.075 272.035 753.265 279.916 756.365C283.48 757.765 287.802 757.832 290.895 755.575C294.047 753.275 295.289 748.953 294.619 745.109C293.774 741.271 291.766 737.786 288.869 735.129C285.45 731.789 281.33 729.253 276.807 727.705C272.285 726.156 267.475 725.635 262.726 726.178C247.526 728.032 235.839 740.329 221.569 745.878C213.107 749.033 203.942 749.809 195.07 748.12C186.198 746.431 177.959 742.343 171.248 736.299" stroke="#171717" stroke-width="3.032" stroke-linecap="round" stroke-linejoin="round"/>
<path d="M217.44 670.125C226.035 674.669 235.491 677.351 245.191 677.997C254.892 678.642 264.619 677.237 273.74 673.871" stroke="#171717" stroke-width="3.032" stroke-linecap="round" stroke-linejoin="round"/>
<path d="M857.22 665.777C860.12 681.618 863.042 697.6 862.59 713.699C862.138 729.798 858.056 746.237 848.228 758.999C838.4 771.761 822.19 780.212 806.228 778.082C794.986 776.582 784.772 770.039 777.517 761.322C770.262 752.605 765.776 741.842 763.168 730.804C761.913 725.494 761.668 718.686 766.35 715.891C769.476 714.027 773.688 714.974 776.497 717.291C779.306 719.608 780.97 723.01 782.286 726.403C786.521 737.316 787.967 749.603 784.521 760.796C781.075 771.989 772.256 781.796 760.929 784.753C748.622 787.963 735.342 782.791 725.74 774.453C716.138 766.115 709.516 754.947 703.063 743.988" stroke="#171717" stroke-width="3.032" stroke-linecap="round" stroke-linejoin="round"/>
<path d="M574.122 71.7344C574.876 65.1618 573.721 58.511 570.795 52.5776C567.869 46.6441 563.296 41.6791 557.622 38.2764" stroke="#171717" stroke-width="3.032" stroke-linecap="round" stroke-linejoin="round"/>
<path d="M583.324 61.3537C582.566 52.877 579.05 44.8826 573.314 38.5947" stroke="#171717" stroke-width="3.032" stroke-linecap="round" stroke-linejoin="round"/>
<path d="M551.378 166.586C546.478 163.221 541.926 159.375 537.789 155.106" stroke="#171717" stroke-width="3.032" stroke-linecap="round" stroke-linejoin="round"/>
<path d="M539.086 169.813C542.919 164.028 546.073 157.82 548.486 151.313" stroke="#171717" stroke-width="3.032" stroke-linecap="round" stroke-linejoin="round"/>
<path d="M534.51 244.376L527.71 230.476" stroke="#171717" stroke-width="3.032" stroke-linecap="round" stroke-linejoin="round"/>
<path d="M536.554 229.368C532.824 235.319 529.493 241.511 526.584 247.903L527.699 246.174" stroke="#171717" stroke-width="3.032" stroke-linecap="round" stroke-linejoin="round"/>
<path d="M487.216 271.132C483.434 269.239 480.11 266.545 477.474 263.238" stroke="#171717" stroke-width="3.032" stroke-linecap="round" stroke-linejoin="round"/>
<path d="M486.046 260.866L478.406 271.101" stroke="#171717" stroke-width="3.032" stroke-linecap="round" stroke-linejoin="round"/>
<path d="M447.692 322.701L437.741 317.634" stroke="#171717" stroke-width="3.032" stroke-linecap="round" stroke-linejoin="round"/>
<path d="M445.747 315.114C442.898 318.328 440.663 322.037 439.153 326.058" stroke="#171717" stroke-width="3.032" stroke-linecap="round" stroke-linejoin="round"/>
<path d="M438.462 372.562C434.336 370.444 430.757 367.397 428.008 363.662" stroke="#171717" stroke-width="3.032" stroke-linecap="round" stroke-linejoin="round"/>
<path d="M436.148 362.576L428.162 372.814" stroke="#171717" stroke-width="3.032" stroke-linecap="round" stroke-linejoin="round"/>
<path d="M400.58 327.687L393.639 318.536" stroke="#171717" stroke-width="3.032" stroke-linecap="round" stroke-linejoin="round"/>
<path d="M390.353 325.728L398.201 319.663" stroke="#171717" stroke-width="3.032" stroke-linecap="round" stroke-linejoin="round"/>
<path d="M399.983 291.481L400.697 280.065" stroke="#171717" stroke-width="3.032" stroke-linecap="round" stroke-linejoin="round"/>
<path d="M389.982 291.838L389.342 280.747C389.388 280.666 389.46 280.603 389.546 280.568C389.633 280.533 389.728 280.529 389.818 280.555C389.907 280.58 389.985 280.636 390.039 280.712C390.093 280.787 390.12 280.879 390.116 280.972C390.111 281.065 390.075 281.154 390.014 281.224C389.953 281.294 389.87 281.342 389.779 281.359C389.687 281.376 389.593 281.362 389.51 281.319C389.428 281.276 389.362 281.206 389.324 281.121" stroke="#171717" stroke-width="3.032" stroke-linecap="round" stroke-linejoin="round"/>
<path d="M361.916 328.582L361.882 329.349L352.602 320.312" stroke="#171717" stroke-width="3.032" stroke-linecap="round" stroke-linejoin="round"/>
<path d="M359.587 319.609L353.497 329.225" stroke="#171717" stroke-width="3.032" stroke-linecap="round" stroke-linejoin="round"/>
<path d="M345.023 384.638C341.186 382.713 337.68 380.19 334.635 377.165" stroke="#171717" stroke-width="3.032" stroke-linecap="round" stroke-linejoin="round"/>
<path d="M342.9 373.174C339.695 377.264 337.169 381.843 335.418 386.735" stroke="#171717" stroke-width="3.032" stroke-linecap="round" stroke-linejoin="round"/>
<path d="M321.29 431.689C321.537 427.368 321.127 423.035 320.074 418.838" stroke="#171717" stroke-width="3.032" stroke-linecap="round" stroke-linejoin="round"/>
<path d="M313.3 427.058C317.126 425.23 321.215 424.011 325.418 423.444" stroke="#171717" stroke-width="3.032" stroke-linecap="round" stroke-linejoin="round"/>
<path d="M380.269 447.938C374.412 445.197 369.123 441.38 364.677 436.686" stroke="#171717" stroke-width="3.032" stroke-linecap="round" stroke-linejoin="round"/>
<path d="M365.491 449.592L374.375 436.37" stroke="#171717" stroke-width="3.032" stroke-linecap="round" stroke-linejoin="round"/>
<path d="M459.389 411.766C455.031 409.987 450.933 407.63 447.204 404.757" stroke="#171717" stroke-width="3.032" stroke-linecap="round" stroke-linejoin="round"/>
<path d="M448.114 415.033L453.038 401.547" stroke="#171717" stroke-width="3.032" stroke-linecap="round" stroke-linejoin="round"/>
<path d="M477.671 379.258C481.618 397.455 486.531 415.43 492.388 433.106" stroke="#171717" stroke-width="3.032" stroke-linecap="round" stroke-linejoin="round"/>
<path d="M505.944 122.435C526.262 119.418 546.759 117.761 567.297 117.474" stroke="#171717" stroke-width="3.032" stroke-linecap="round" stroke-linejoin="round"/>
<path d="M727.355 628.246C729.733 626.346 821.055 497.44 821.055 497.44" stroke="#171717" stroke-width="3.032" stroke-linecap="round" stroke-linejoin="round"/>
<path d="M652.199 626.819C653.626 625.867 769.21 494.11 769.21 494.11" stroke="#171717" stroke-width="3.032" stroke-linecap="round" stroke-linejoin="round"/>
<path d="M589.891 620.16C591.318 619.209 696.914 497.917 696.914 497.917" stroke="#171717" stroke-width="3.032" stroke-linecap="round" stroke-linejoin="round"/>
<path d="M809.168 563.081C809.168 561.654 653.152 498.867 653.152 498.867" stroke="#171717" stroke-width="3.032" stroke-linecap="round" stroke-linejoin="round"/>
<path d="M791.569 598.755L572.292 500.294" stroke="#171717" stroke-width="3.032" stroke-linecap="round" stroke-linejoin="round"/>
<path d="M765.407 633.478C765.407 633.478 604.635 555.946 605.587 556.421" stroke="#171717" stroke-width="3.032" stroke-linecap="round" stroke-linejoin="round"/>
<path d="M785.593 324.03C787.238 322.649 788.585 320.948 789.553 319.03C790.026 318.066 790.255 317.001 790.22 315.928C790.185 314.855 789.887 313.807 789.353 312.876C787.606 310.212 783.813 309.849 780.687 310.461C777.827 311.037 775.11 312.177 772.696 313.815C770.282 315.453 768.219 317.556 766.627 320C768.477 315.175 769.013 309.579 766.754 304.932C764.495 300.285 758.917 297.086 753.998 298.666C749.406 300.141 746.726 305.201 746.558 310.02C746.39 314.839 748.212 319.485 750.099 323.92C753.499 331.909 754.978 342.313 758.632 340.856C766.634 337.667 779.272 329.888 785.593 324.03Z" fill="white"/>
<path d="M577.688 309.86L585.013 316.46C585.234 316.659 585.388 316.921 585.456 317.21C585.524 317.5 585.501 317.803 585.391 318.08C585.281 318.356 585.089 318.592 584.841 318.756C584.593 318.92 584.3 319.004 584.003 318.997L574.149 318.748C573.861 318.74 573.578 318.819 573.335 318.972C573.092 319.126 572.9 319.348 572.783 319.611L568.774 328.611C568.653 328.882 568.451 329.11 568.197 329.264C567.942 329.417 567.646 329.489 567.35 329.47C567.053 329.451 566.769 329.341 566.536 329.155C566.304 328.97 566.134 328.718 566.049 328.433L563.241 318.985C563.159 318.709 562.997 318.464 562.777 318.281C562.556 318.097 562.286 317.982 562 317.952L552.2 316.922C551.904 316.891 551.625 316.77 551.399 316.575C551.174 316.381 551.014 316.122 550.941 315.834C550.867 315.545 550.884 315.241 550.989 314.963C551.093 314.684 551.281 314.444 551.526 314.276L559.644 308.685C559.881 308.522 560.065 308.293 560.171 308.026C560.278 307.759 560.303 307.466 560.244 307.185L558.194 297.544C558.132 297.253 558.161 296.95 558.277 296.676C558.393 296.402 558.59 296.17 558.841 296.011C559.093 295.852 559.387 295.774 559.684 295.788C559.981 295.801 560.267 295.905 560.503 296.086L568.328 302.079C568.556 302.253 568.832 302.357 569.119 302.375C569.406 302.394 569.692 302.327 569.941 302.184L578.477 297.255C578.735 297.106 579.032 297.039 579.328 297.064C579.625 297.09 579.906 297.205 580.135 297.395C580.364 297.585 580.529 297.841 580.608 298.128C580.687 298.415 580.676 298.719 580.577 299L577.296 308.3C577.201 308.569 577.187 308.861 577.257 309.139C577.327 309.416 577.476 309.667 577.688 309.86V309.86Z" fill="white"/>
<path d="M610.731 209.011L620.074 207.311C620.194 207.29 620.317 207.306 620.428 207.357C620.538 207.408 620.63 207.492 620.692 207.596C620.754 207.701 620.783 207.822 620.774 207.943C620.766 208.065 620.721 208.181 620.645 208.276L614.652 215.643C614.578 215.734 614.532 215.846 614.521 215.964C614.51 216.081 614.533 216.199 614.589 216.304L619.095 224.664C619.152 224.771 619.174 224.893 619.16 225.014C619.145 225.135 619.094 225.248 619.014 225.339C618.934 225.43 618.828 225.495 618.71 225.524C618.592 225.554 618.468 225.547 618.354 225.505L609.495 222.082C609.385 222.04 609.265 222.031 609.15 222.057C609.035 222.082 608.93 222.142 608.848 222.227L602.289 229.095C602.204 229.182 602.095 229.241 601.976 229.264C601.856 229.288 601.733 229.275 601.621 229.226C601.51 229.178 601.416 229.097 601.351 228.994C601.287 228.891 601.255 228.771 601.26 228.65L601.778 219.167C601.784 219.049 601.756 218.932 601.696 218.83C601.636 218.729 601.547 218.647 601.441 218.596L592.882 214.481C592.773 214.427 592.683 214.341 592.624 214.235C592.565 214.129 592.539 214.007 592.55 213.887C592.562 213.766 592.61 213.651 592.688 213.558C592.766 213.465 592.87 213.397 592.987 213.365L602.166 210.927C602.28 210.896 602.383 210.832 602.461 210.743C602.539 210.654 602.588 210.544 602.604 210.427L603.873 201.016C603.891 200.895 603.944 200.783 604.027 200.694C604.109 200.605 604.217 200.543 604.336 200.516C604.454 200.49 604.578 200.5 604.691 200.545C604.804 200.591 604.9 200.669 604.967 200.771L610.122 208.747C610.186 208.846 610.278 208.924 610.387 208.971C610.495 209.017 610.615 209.031 610.731 209.011V209.011Z" fill="#171717"/>
<path d="M714.226 357.08L726.334 342.792" stroke="#171717" stroke-width="3.032" stroke-linecap="round" stroke-linejoin="round"/>
<path d="M692.707 352.108L706.699 239.343" stroke="#171717" stroke-width="3.032" stroke-linecap="round" stroke-linejoin="round"/>
<path d="M665.056 348.559L663.628 327.154" stroke="#171717" stroke-width="3.032" stroke-linecap="round" stroke-linejoin="round"/>
<path d="M639.841 349.343L614.97 266.549" stroke="#171717" stroke-width="3.032" stroke-linecap="round" stroke-linejoin="round"/>
<path d="M615.064 355.725L606.5 345.738" stroke="#171717" stroke-width="3.032" stroke-linecap="round" stroke-linejoin="round"/>
<g opacity="0.1">
<path d="M333.528 309.994C317.428 324.148 307.013 342.61 299.491 362.557C295.764 372.491 293.088 382.788 291.509 393.28C289.882 403.98 288.886 415.294 292.352 425.774C299.896 448.586 322.609 457.605 344.852 459.011C368.478 460.504 392.652 457.298 415.831 452.937C442.145 447.986 467.923 440.63 493.643 433.271C507.829 429.212 501.793 407.028 487.537 411.123C447.092 422.741 406.051 434.704 363.737 436.274C348.37 436.844 326.821 438.031 316.215 424.281C311.038 417.568 311.415 408.287 312.103 400.307C312.952 391.517 314.618 382.826 317.08 374.345C322.709 354.188 333.038 335.757 343.98 318.06C348.117 311.371 339.015 305.169 333.526 309.994H333.528Z" fill="#171717"/>
</g>
<g opacity="0.1">
<path d="M536.969 476.234C533.119 489.879 536.747 504.91 538.813 518.623C540.911 532.547 542.899 546.489 544.777 560.447C548.477 587.954 551.564 615.547 554.249 643.168C554.866 649.517 559.236 654.98 566.061 654.98C571.947 654.98 578.523 649.554 577.873 643.168C574.949 614.466 571.408 585.837 567.249 557.28C565.249 543.366 563.076 529.478 560.73 515.617C558.42 501.951 556.949 486.225 548.621 474.711C545.521 470.42 538.558 470.603 536.969 476.234V476.234Z" fill="#171717"/>
</g>
</svg>
